{
  "accessors": [
    {
      "bufferView": 2,
      "componentType": 5126,
      "count": 40297,
      "max": [
        0.945697546005249,
        0.46737319231033325,
        2.4310710430145264
      ],
      "min": [
        -0.9457538723945618,
        -0.41242870688438416,
        -0.000701068842317909
      ],
      "type": "VEC3"
    },
    {
      "bufferView": 2,
      "byteOffset": 483564,
      "componentType": 5126,
      "count": 40297,
      "max": [
        0.9999847412109375,
        0.9999845623970032,
        0.9999848008155823
      ],
      "min": [
        -0.9999844431877136,
        -0.9999847412109375,
        -0.9999845623970032
      ],
      "type": "VEC3"
    },
    {
      "bufferView": 1,
      "componentType": 5126,
      "count": 40297,
      "max": [
        0.9926444888114929,
        0.9862198233604431
      ],
      "min": [
        0.014011427760124207,
        0.008800029754638672
      ],
      "type": "VEC2"
    },
    {
      "bufferView": 0,
      "componentType": 5125,
      "count": 187950,
      "type": "SCALAR"
    },
    {
      "bufferView": 2,
      "byteOffset": 967128,
      "componentType": 5126,
      "count": 5750,
      "max": [
        -0.43488776683807373,
        1.1005306243896484,
        0.4165917932987213
      ],
      "min": [
        -0.820044755935669,
        0.7327290773391724,
        -0.3869391083717346
      ],
      "type": "VEC3"
    },
    {
      "bufferView": 2,
      "byteOffset": 1036128,
      "componentType": 5126,
      "count": 5750,
      "max": [
        0.9996157884597778,
        0.999186635017395,
        0.9998003244400024
      ],
      "min": [
        -0.9988618493080139,
        -0.9984264373779297,
        -0.9996098875999451
      ],
      "type": "VEC3"
    },
    {
      "bufferView": 3,
      "componentType": 5126,
      "count": 5750,
      "max": [
        0.9999905228614807,
        0.9999316334724426,
        0.9999922513961792,
        1.0
      ],
      "min": [
        -0.9998051524162292,
        -0.9999920129776001,
        -0.999929666519165,
        -1.0
      ],
      "type": "VEC4"
    },
    {
      "bufferView": 1,
      "byteOffset": 322376,
      "componentType": 5126,
      "count": 5750,
      "max": [
        1.23046875,
        1.0
      ],
      "min": [
        0.0240478515625,
        -0.1708984375
      ],
      "type": "VEC2"
    },
    {
      "bufferView": 1,
      "byteOffset": 368376,
      "componentType": 5126,
      "count": 5750,
      "max": [
        1.23046875,
        1.0
      ],
      "min": [
        0.0240478515625,
        -0.1708984375
      ],
      "type": "VEC2"
    },
    {
      "bufferView": 1,
      "byteOffset": 414376,
      "componentType": 5126,
      "count": 5750,
      "max": [
        1.23046875,
        1.0
      ],
      "min": [
        0.0240478515625,
        -0.1708984375
      ],
      "type": "VEC2"
    },
    {
      "bufferView": 1,
      "byteOffset": 460376,
      "componentType": 5126,
      "count": 5750,
      "max": [
        1.23046875,
        1.0
      ],
      "min": [
        0.0240478515625,
        -0.1708984375
      ],
      "type": "VEC2"
    },
    {
      "bufferView": 0,
      "byteOffset": 751800,
      "componentType": 5125,
      "count": 28938,
      "type": "SCALAR"
    },
    {
      "bufferView": 2,
      "byteOffset": 1105128,
      "componentType": 5126,
      "count": 10248,
      "max": [
        0.3855094015598297,
        1.8199195861816406,
        0.3067161440849304
      ],
      "min": [
        -0.3705030381679535,
        -0.00028119049966335297,
        -0.3569781482219696
      ],
      "type": "VEC3"
    },
    {
      "bufferView": 2,
      "byteOffset": 1228104,
      "componentType": 5126,
      "count": 10248,
      "max": [
        0.9999846816062927,
        0.9999846816062927,
        0.9999231100082397
      ],
      "min": [
        -0.9999843239784241,
        -0.9999849200248718,
        -0.9999220371246338
      ],
      "type": "VEC3"
    },
    {
      "bufferView": 3,
      "byteOffset": 92000,
      "componentType": 5126,
      "count": 10248,
      "max": [
        0.9999781847000122,
        0.9996943473815918,
        0.9998696446418762,
        1.0
      ],
      "min": [
        -0.9999921321868896,
        -0.9997981190681458,
        -0.9999748468399048,
        -1.0
      ],
      "type": "VEC4"
    },
    {
      "bufferView": 1,
      "byteOffset": 506376,
      "componentType": 5126,
      "count": 10248,
      "max": [
        0.99853515625,
        1.0
      ],
      "min": [
        0.0004220008850097656,
        0.000827789306640625
      ],
      "type": "VEC2"
    },
    {
      "bufferView": 1,
      "byteOffset": 588360,
      "componentType": 5126,
      "count": 10248,
      "max": [
        0.99853515625,
        1.0
      ],
      "min": [
        0.0004220008850097656,
        0.000827789306640625
      ],
      "type": "VEC2"
    },
    {
      "bufferView": 1,
      "byteOffset": 670344,
      "componentType": 5126,
      "count": 10248,
      "max": [
        0.99853515625,
        1.0
      ],
      "min": [
        0.0004220008850097656,
        0.000827789306640625
      ],
      "type": "VEC2"
    },
    {
      "bufferView": 1,
      "byteOffset": 752328,
      "componentType": 5126,
      "count": 10248,
      "max": [
        0.99853515625,
        1.0
      ],
      "min": [
        0.0004220008850097656,
        0.000827789306640625
      ],
      "type": "VEC2"
    },
    {
      "bufferView": 0,
      "byteOffset": 867552,
      "componentType": 5125,
      "count": 46359,
      "type": "SCALAR"
    },
    {
      "bufferView": 2,
      "byteOffset": 1351080,
      "componentType": 5126,
      "count": 15842,
      "max": [
        0.7168604135513306,
        1.79856276512146,
        0.14613015949726105
      ],
      "min": [
        -0.7168604135513306,
        0.009871316142380238,
        -0.17175258696079254
      ],
      "type": "VEC3"
    },
    {
      "bufferView": 2,
      "byteOffset": 1541184,
      "componentType": 5126,
      "count": 15842,
      "max": [
        0.9999848008155823,
        0.9999848008155823,
        0.9999848008155823
      ],
      "min": [
        -0.9999842643737793,
        -0.9999845623970032,
        -0.9999848008155823
      ],
      "type": "VEC3"
    },
    {
      "bufferView": 3,
      "byteOffset": 255968,
      "componentType": 5126,
      "count": 15842,
      "max": [
        0.9999923706054688,
        0.9983084201812744,
        0.9997639060020447,
        1.0
      ],
      "min": [
        -0.9999923706054688,
        -0.9999672174453735,
        -0.9995123147964478,
        -1.0
      ],
      "type": "VEC4"
    },
    {
      "bufferView": 1,
      "byteOffset": 834312,
      "componentType": 5126,
      "count": 15842,
      "max": [
        0.99951171875,
        1.0
      ],
      "min": [
        0.0,
        0.0
      ],
      "type": "VEC2"
    },
    {
      "bufferView": 1,
      "byteOffset": 961048,
      "componentType": 5126,
      "count": 15842,
      "max": [
        0.99951171875,
        1.0
      ],
      "min": [
        0.0,
        0.0
      ],
      "type": "VEC2"
    },
    {
      "bufferView": 1,
      "byteOffset": 1087784,
      "componentType": 5126,
      "count": 15842,
      "max": [
        0.99951171875,
        1.0
      ],
      "min": [
        0.0,
        0.0
      ],
      "type": "VEC2"
    },
    {
      "bufferView": 1,
      "byteOffset": 1214520,
      "componentType": 5126,
      "count": 15842,
      "max": [
        0.99951171875,
        1.0
      ],
      "min": [
        0.0,
        0.0
      ],
      "type": "VEC2"
    },
    {
      "bufferView": 0,
      "byteOffset": 1052988,
      "componentType": 5125,
      "count": 76560,
      "type": "SCALAR"
    },
    {
      "bufferView": 2,
      "byteOffset": 1731288,
      "componentType": 5126,
      "count": 24803,
      "max": [
        0.30309394001960754,
        1.9040052890777588,
        0.18808868527412415
      ],
      "min": [
        -0.3236684501171112,
        1.329160451889038,
        -0.3306293189525604
      ],
      "type": "VEC3"
    },
    {
      "bufferView": 2,
      "byteOffset": 2028924,
      "componentType": 5126,
      "count": 24803,
      "max": [
        0.9998618364334106,
        0.9999231696128845,
        0.9999848008155823
      ],
      "min": [
        -0.999921977519989,
        -0.999796986579895,
        -0.9997352957725525
      ],
      "type": "VEC3"
    },
    {
      "bufferView": 1,
      "byteOffset": 1341256,
      "componentType": 5126,
      "count": 24803,
      "max": [
        0.99072265625,
        0.994140625
      ],
      "min": [
        0.005859375,
        0.0045928955078125
      ],
      "type": "VEC2"
    },
    {
      "bufferView": 1,
      "byteOffset": 1539680,
      "componentType": 5126,
      "count": 24803,
      "max": [
        0.99072265625,
        0.994140625
      ],
      "min": [
        0.005859375,
        0.0045928955078125
      ],
      "type": "VEC2"
    },
    {
      "bufferView": 1,
      "byteOffset": 1738104,
      "componentType": 5126,
      "count": 24803,
      "max": [
        0.99072265625,
        0.994140625
      ],
      "min": [
        0.005859375,
        0.0045928955078125
      ],
      "type": "VEC2"
    },
    {
      "bufferView": 0,
      "byteOffset": 1359228,
      "componentType": 5125,
      "count": 74460,
      "type": "SCALAR"
    },
    {
      "bufferView": 2,
      "byteOffset": 2326560,
      "componentType": 5126,
      "count": 844,
      "max": [
        0.10173634439706802,
        1.7061545848846436,
        0.10344120115041733
      ],
      "min": [
        -0.10173660516738892,
        1.615370273590088,
        0.010951708070933819
      ],
      "type": "VEC3"
    },
    {
      "bufferView": 2,
      "byteOffset": 2336688,
      "componentType": 5126,
      "count": 844,
      "max": [
        0.9999845623970032,
        0.998694121837616,
        0.999923825263977
      ],
      "min": [
        -0.9999842643737793,
        -0.9982386827468872,
        -0.9950762391090393
      ],
      "type": "VEC3"
    },
    {
      "bufferView": 3,
      "byteOffset": 509440,
      "componentType": 5126,
      "count": 844,
      "max": [
        0.9896414279937744,
        0.8593671917915344,
        0.9985371828079224,
        1.0
      ],
      "min": [
        -0.8120359778404236,
        -0.8585546612739563,
        -0.9997477531433105,
        -1.0
      ],
      "type": "VEC4"
    },
    {
      "bufferView": 1,
      "byteOffset": 1936528,
      "componentType": 5126,
      "count": 844,
      "max": [
        0.99853515625,
        0.99755859375
      ],
      "min": [
        0.0011720657348632813,
        0.00030303001403808594
      ],
      "type": "VEC2"
    },
    {
      "bufferView": 1,
      "byteOffset": 1943280,
      "componentType": 5126,
      "count": 844,
      "max": [
        0.99853515625,
        0.99755859375
      ],
      "min": [
        0.0011720657348632813,
        0.00030303001403808594
      ],
      "type": "VEC2"
    },
    {
      "bufferView": 0,
      "byteOffset": 1657068,
      "componentType": 5125,
      "count": 4800,
      "type": "SCALAR"
    }
  ],
  "asset": {
    "extras": {
      "author": "Garten of banban (https://sketchfab.com/TabooAttic59597)",
      "license": "CC-BY-4.0 (http://creativecommons.org/licenses/by/4.0/)",
      "source": "https://sketchfab.com/3d-models/miss-delight-d8bf58bf93e34199a5198d491706dcdd",
      "title": "Miss Delight"
    },
    "generator": "Sketchfab-15.70.0",
    "version": "2.0"
  },
  "bufferViews": [
    {
      "buffer": 0,
      "byteLength": 1676268,
      "name": "floatBufferViews",
      "target": 34963
    },
    {
      "buffer": 0,
      "byteLength": 1950032,
      "byteOffset": 1676268,
      "byteStride": 8,
      "name": "floatBufferViews",
      "target": 34962
    },
    {
      "buffer": 0,
      "byteLength": 2346816,
      "byteOffset": 3626300,
      "byteStride": 12,
      "name": "floatBufferViews",
      "target": 34962
    },
    {
      "buffer": 0,
      "byteLength": 522944,
      "byteOffset": 5973116,
      "byteStride": 16,
      "name": "floatBufferViews",
      "target": 34962
    }
  ],
  "buffers": [
    {
      "byteLength": 6496060,
      "uri": "ene.bin"
    }
  ],
  "images": [
    {
      "uri": "textures/MI_TeacherWeapon_baseColor.jpeg"
    },
    {
      "uri": "textures/MI_TeacherWeapon_metallicRoughness.png"
    },
    {
      "uri": "textures/MI_TeacherWeapon_normal.jpeg"
    },
    {
      "uri": "textures/MI_TeacherClothes_Ruined_baseColor.jpeg"
    },
    {
      "uri": "textures/MI_TeacherClothes_Ruined_metallicRoughness.png"
    },
    {
      "uri": "textures/MI_TeacherClothes_Ruined_normal.jpeg"
    },
    {
      "uri": "textures/MI_TeacherBody_Ruined_baseColor.jpeg"
    },
    {
      "uri": "textures/MI_TeacherBody_Ruined_normal.jpeg"
    },
    {
      "uri": "textures/M_TeacherHair_Ruined_baseColor.jpeg"
    },
    {
      "uri": "textures/M_TeacherHair_Ruined_metallicRoughness.png"
    },
    {
      "uri": "textures/MI_TeacherEye_Ruined_baseColor.jpeg"
    },
    {
      "uri": "textures/MI_TeacherEye_Ruined_normal.jpeg"
    },
    {
      "uri": "textures/white_lambert_baseColor.jpeg"
    }
  ],
  "materials": [
    {
      "doubleSided": true,
      "name": "MI_TeacherWeapon",
      "normalTexture": {
        "index": 2
      },
      "pbrMetallicRoughness": {
        "baseColorTexture": {
          "index": 0
        },
        "metallicRoughnessTexture": {
          "index": 1
        }
      }
    },
    {
      "doubleSided": true,
      "name": "MI_TeacherClothes_Ruined",
      "normalTexture": {
        "index": 5
      },
      "pbrMetallicRoughness": {
        "baseColorTexture": {
          "index": 3
        },
        "metallicRoughnessTexture": {
          "index": 4
        }
      }
    },
    {
      "doubleSided": true,
      "name": "MI_TeacherBody_Ruined",
      "normalTexture": {
        "index": 7
      },
      "pbrMetallicRoughness": {
        "baseColorTexture": {
          "index": 6
        },
        "metallicRoughnessTexture": {
          "index": 4
        }
      }
    },
    {
      "doubleSided": true,
      "name": "M_TeacherHair_Ruined",
      "pbrMetallicRoughness": {
        "baseColorTexture": {
          "index": 8
        },
        "metallicRoughnessTexture": {
          "index": 9
        }
      }
    },
    {
      "doubleSided": true,
      "name": "MI_TeacherEye_Ruined",
      "normalTexture": {
        "index": 11
      },
      "pbrMetallicRoughness": {
        "baseColorTexture": {
          "index": 10
        },
        "metallicFactor": 0.0,
        "roughnessFactor": 0.821115
      }
    },
    {
      "doubleSided": true,
      "name": "white_lambert",
      "pbrMetallicRoughness": {
        "baseColorTexture": {
          "index": 12
        },
        "metallicFactor": 0.0,
        "roughnessFactor": 0.821115
      }
    }
  ],
  "meshes": [
    {
      "name": "NormalTeacher_white_lambert_0",
      "primitives": [
        {
          "attributes": {
            "NORMAL": 1,
            "POSITION": 0,
            "TEXCOORD_0": 2
          },
          "indices": 3,
          "material": 5,
          "mode": 4
        }
      ]
    },
    {
      "name": "Weapon_MI_TeacherWeapon_0",
      "primitives": [
        {
          "attributes": {
            "NORMAL": 5,
            "POSITION": 4,
            "TANGENT": 6,
            "TEXCOORD_0": 7,
            "TEXCOORD_1": 8,
            "TEXCOORD_2": 9,
            "TEXCOORD_3": 10
          },
          "indices": 11,
          "material": 0,
          "mode": 4
        }
      ]
    },
    {
      "name": "Mesh_MI_TeacherClothes_Ruined_0",
      "primitives": [
        {
          "attributes": {
            "NORMAL": 13,
            "POSITION": 12,
            "TANGENT": 14,
            "TEXCOORD_0": 15,
            "TEXCOORD_1": 16,
            "TEXCOORD_2": 17,
            "TEXCOORD_3": 18
          },
          "indices": 19,
          "material": 1,
          "mode": 4
        }
      ]
    },
    {
      "name": "Mesh_MI_TeacherBody_Ruined_0",
      "primitives": [
        {
          "attributes": {
            "NORMAL": 21,
            "POSITION": 20,
            "TANGENT": 22,
            "TEXCOORD_0": 23,
            "TEXCOORD_1": 24,
            "TEXCOORD_2": 25,
            "TEXCOORD_3": 26
          },
          "indices": 27,
          "material": 2,
          "mode": 4
        }
      ]
    },
    {
      "name": "Mesh_M_TeacherHair_Ruined_0",
      "primitives": [
        {
          "attributes": {
            "NORMAL": 29,
            "POSITION": 28,
            "TEXCOORD_0": 30,
            "TEXCOORD_1": 31,
            "TEXCOORD_2": 32
          },
          "indices": 33,
          "material": 3,
          "mode": 4
        }
      ]
    },
    {
      "name": "Mesh_MI_TeacherEye_Ruined_0",
      "primitives": [
        {
          "attributes": {
            "NORMAL": 35,
            "POSITION": 34,
            "TANGENT": 36,
            "TEXCOORD_0": 37,
            "TEXCOORD_1": 38
          },
          "indices": 39,
          "material": 4,
          "mode": 4
        }
      ]
    }
  ],
  "nodes": [
    {
      "children": [
        1
      ],
      "matrix": [
        1.0,
        0.0,
        0.0,
        0.0,
        0.0,
        2.220446049250313e-16,
        -1.0,
        0.0,
        0.0,
        1.0,
        2.220446049250313e-16,
        0.0,
        0.0,
        0.0,
        0.0,
        1.0
      ],
      "name": "Sketchfab_model"
    },
    {
      "children": [
        11,
        12,
        13,
        14,
        15,
        2
      ],
      "matrix": [
        0.009999999776482582,
        0.0,
        0.0,
        0.0,
        0.0,
        2.2204459996194763e-18,
        0.009999999776482582,
        0.0,
        0.0,
        -0.009999999776482582,
        2.2204459996194763e-18,
        0.0,
        0.0,
        0.0,
        0.0,
        1.0
      ],
      "name": "USDRoot"
    },
    {
      "children": [
        3
      ],
      "name": "scene"
    },
    {
      "children": [
        4
      ],
      "matrix": [
        100.0,
        0.0,
        0.0,
        0.0,
        0.0,
        100.0,
        0.0,
        0.0,
        0.0,
        0.0,
        100.0,
        0.0,
        180.50738525390625,
        0.0,
        1.8595949411392212,
        1.0
      ],
      "name": "Meshes"
    },
    {
      "children": [
        5
      ],
      "matrix": [
        0.9025274515151978,
        0.0,
        0.0,
        0.0,
        0.0,
        2.0040135140568743e-16,
        -0.9025274515151978,
        0.0,
        0.0,
        0.9025274515151978,
        2.0040135140568743e-16,
        0.0,
        0.0,
        0.0,
        0.0,
        1.0
      ],
      "name": "Sketchfab_model"
    },
    {
      "children": [
        6
      ],
      "matrix": [
        0.009999999776482582,
        0.0,
        0.0,
        0.0,
        0.0,
        0.0,
        0.009999999776482582,
        0.0,
        0.0,
        -0.009999999776482582,
        0.0,
        0.0,
        0.0,
        0.0,
        0.0,
        1.0
      ],
      "name": "_d3d938175184f128e0f2d45c582c35f_fbx"
    },
    {
      "children": [
        7
      ],
      "name": "Object_2"
    },
    {
      "children": [
        8
      ],
      "name": "RootNode"
    },
    {
      "children": [
        9
      ],
      "matrix": [
        75.0,
        0.0,
        0.0,
        0.0,
        0.0,
        -1.0076913895318285e-05,
        -75.0,
        0.0,
        0.0,
        75.0,
        -1.0076913895318285e-05,
        0.0,
        -200.0,
        0.0,
        0.0,
        1.0
      ],
      "name": "NormalTeacher"
    },
    {
      "children": [
        10
      ],
      "name": "NormalTeacher_white_lambert_0"
    },
    {
      "mesh": 0,
      "name": "NormalTeacher_white_lambert_0"
    },
    {
      "mesh": 1,
      "name": "Weapon_MI_TeacherWeapon_0"
    },
    {
      "mesh": 2,
      "name": "Mesh_MI_TeacherClothes_Ruined_0"
    },
    {
      "mesh": 3,
      "name": "Mesh_MI_TeacherBody_Ruined_0"
    },
    {
      "mesh": 4,
      "name": "Mesh_M_TeacherHair_Ruined_0"
    },
    {
      "mesh": 5,
      "name": "Mesh_MI_TeacherEye_Ruined_0"
    }
  ],
  "samplers": [
    {
      "magFilter": 9729,
      "minFilter": 9987,
      "wrapS": 10497,
      "wrapT": 10497
    }
  ],
  "scene": 0,
  "scenes": [
    {
      "name": "Sketchfab_Scene",
      "nodes": [
        0
      ]
    }
  ],
  "textures": [
    {
      "sampler": 0,
      "source": 0
    },
    {
      "sampler": 0,
      "source": 1
    },
    {
      "sampler": 0,
      "source": 2
    },
    {
      "sampler": 0,
      "source": 3
    },
    {
      "sampler": 0,
      "source": 4
    },
    {
      "sampler": 0,
      "source": 5
    },
    {
      "sampler": 0,
      "source": 6
    },
    {
      "sampler": 0,
      "source": 7
    },
    {
      "sampler": 0,
      "source": 8
    },
    {
      "sampler": 0,
      "source": 9
    },
    {
      "sampler": 0,
      "source": 10
    },
    {
      "sampler": 0,
      "source": 11
    },
    {
      "sampler": 0,
      "source": 12
    }
  ]
}
